<?xml version="1.0" encoding="utf-8"?>
<!-- Generator: Adobe Illustrator 18.0.0, SVG Export Plug-In . SVG Version: 6.00 Build 0)  -->
<!DOCTYPE svg PUBLIC "-//W3C//DTD SVG 1.1//EN" "http://www.w3.org/Graphics/SVG/1.1/DTD/svg11.dtd">
<svg version="1.1" id="Слой_2" xmlns="http://www.w3.org/2000/svg" xmlns:xlink="http://www.w3.org/1999/xlink" x="0px" y="0px"
	 viewBox="258 247 1073 1200" enable-background="new 258 247 1073 1200" xml:space="preserve">
<path fill="#000000"    d="M997.6,691.5c-2.9-0.3-5.3,0.9-7.2,2.6
	c-4.8-6-10.1,1.6-15.3-0.8c-4.6-2.1-10.6-10.8-12.9-0.3c-2.1,0.3-4.3-0.3-6.3-0.8c-3.4-0.9-2.8-1.3-5.3-2.9c-4.6-2.9-6.3-2.4-11.2-1
	c-1.8-8.5-8.9,0.8-11.6-0.5c-5.2-2.4-1.3-8.8-9.3-7.9c-2.5,0.3-4,2.3-7.2,1.9c-3-0.4-4.3-2.3-6.7-3.3c-3.8-1.6-10.6-2.9-13.6-6
	c-3.6-3.8-1.9-10.6-5.5-14.7c-3.4-3.8-10.4-3-14.8-3.9c-3.1-0.6-3-1.3-6.7-0.5c-2.6,0.6-4.9,2.3-7.4,2.6c-4.5,0.8-15.2-2.9-15.1,4.5
	c-3,0-5.8-3-9.2-3.6c-2.8-0.5-8.9,0.9-10.9-1.1c-2.9-2.9,0.6-6.7-3.9-8.9c-3.1-1.5-6.8,0.9-9,2.5c-7.2-4-10.7-6.7-18.8-8.2
	c-5.2-0.9-11.7-4.4-16.5-6.7c-0.3-2.4,0.6-5.8-1-7.5c-1.9-2-6.9-0.4-8.7-2.3c-1.9-1.9-0.1-3.9-2.5-5.8c-2.3-1.8-5.5-0.5-8.2-1.1
	c-4.3-1-9.4-2.9-12.3-6.3c-1.4-1.6-0.1-4.8-3.5-4.5c-1.4,0.1-3.6,4.3-4,5.3c-5.5-0.6-10.9-7.7-14.3-11.9c1.5,0.1,2.6-0.9,4.1-1
	c0.3-2.9,0-6,0.3-8.9c0.5-0.1,1-0.3,1.5-0.4c1.3-3.9,3.5-8.4,1.3-12.6c1.3-1.1,3.4-2.6,4.3-4.1c1.4-2.5,0.1-4.6,1.1-7.2
	c2-5.4,8.2-1.9,7.5-10.1c2.4-0.6,14.8,0.9,9.3-6.4c2.6-0.4,4.9-1.5,7.3-3c-1.3-1.6-2.6-4-2.9-6.4c-1.9,0.3-3.4,0.4-5.3,0.6
	c-2-4-2.9-6.8-7.5-8.3c-4.1-1.3-7.3-0.5-10.9-3.9s-0.6-5.7-3.3-8.9c-0.3-0.4-4.6-1.3-5.7-1.8c-1.6-0.9-3-2.8-4.6-3.8
	c-7.3-4.3-15.2,1-21-6.9c-2.3-3.1-10.7-22-14.3-7.4c-6.8,2.3-5.3-4.8-4.8-8.4c0.6-4.1-0.4-8.2-0.9-12.1c-0.8-5.8-2.5-7.3-5.7-11.7
	c-2.1-2.9-3.1-7.7-7-8.8c0.3-3.9,3-7.2,2.8-11.8c3.6,0.1,6-2.4,8.9,0.8c2,2.3,0.8,5.5,2.3,8.2c6.9,1.1,8.9-1.9,12.2-7.2
	c2,1.5,4.3,0.1,6-1.3c0.1-0.5,0.3-1,0.4-1.5c3.3-0.4,6.5,0.9,8.3-2c1.4-2.3-0.6-6.8-1.6-8.7c-1.3-2.3-4.3-3.5-4.9-6.2
	c-1-3.8,1.6-5.4,2.1-8.4c0.9-4.6,2.1-3-3-4.6c-2.8-0.9-6.4,0-9-1.1c-7.4-3.3-5.3-8-5.7-14.5c5.4-1.1,2.8-5.8,2.5-9.3
	c-2.1-0.5-4.4-0.3-6.2,0.8c-0.5-5.5,5.4-10.8,10.8-9.9c4,0.6,13.8,6,12.4-3.8c7-1.4,0.1-8.4,3.8-12.1c2.9-2.9,13.9-0.1,8.2-7.7
	c3-2.4,7.7-0.4,10.2-3c2-2.1,0.9-8.4,1.6-11.2c0.9-3.3,3-5.3,4.6-8.4c1.3-2.4,2.4-8,3-8l-1.9-3.8c0,0-1.1-1.5-1.1-3.5
	c-0.5-0.1-1-0.3-1.5-0.4c0-4.5-8.2-9.5-11.1-10.8c-3.4-1.5-11.9-0.8-15.1-3.9c-3.3-3.3,0.1-5.8-5.7-4.6c-2.1,0.4-4.9,2.4-6.8,3.5
	c-4.5,2.5-10.2,5.7-14.5,0.4c-0.3,2.4-4.5,3.9-6.7,4.5c-1.4,0.4-2.4,1.6-3.8,2c-1,0.3-2.1-1.9-3.8-1c-2.1,1-2.8,3.9-4.8,5.4
	c-2.5,2-4.4,2.1-7.4,2.8c-1.6,0.4-2.1,1.9-3.5,2.1c-1,0.1-2.1-1.4-3.8-1c-2.4,0.5-6.3,3.5-8.4,2.8c-3-1-6.3-9.8-6.5-12.9
	c-5.4-0.1-14.8,3.6-18.7-0.1c-2.1-2.1-2.4-6.5-3.5-9.3c-1-2.6-2.8-5.4-3.8-8.2c-6.3,0.4-3.6-3.8-6.5-5.5c-1.1-0.6-3.6-0.4-3.8-0.4
	c-0.1-0.1-3.3-1.5-3.8-1.6c-2.1-0.8-4.8-4.1-6.5-5.4c-2.4-1.6-3.8-3.8-5.7-5.7c-4.8-4.6-8.7-9.7-12.6-15.1c-2.3-3.3-2.8-4.4-6.8-4.6
	c-2.9-0.3-3.3,3.3-6.5,0.5c-5.7,8.2-7.7-1.3-11.8-2.5c-5-1.5-1.6,3.8-4.9,4.8c-3.3,1-3.8-2.6-5.4-4.4c1,6.3-5.2,3.3-8.3,4.8
	c-1.4,0.8-1.5,3.9-3.3,4.3c-2.3,0.4-2.5-2-4.4-2.9c-2.8-1.3-10.2-3.8-10.3,2c0,3.8,9.9,3.6,5.4,8.3c-2.5-1-5.9-4.6-8.3-5.3
	c-3.3-0.8-6.8,1.1-9.8,1.5c-1.5,0.1-3.1-1.5-5.2,0c-2.1,1.6-0.4,3.5-1.5,4.9c-2.4,3.1-5.4,2.8-9.3,2.9c1.8,2.5-5,12.8-8.4,14.5
	c-3.4,1.8-7.4-2-8.4,2.9c-0.6,2.8,4.4,8,4.6,11.2l-0.9,3.8c2.6,9,14.5,0.4,20.2,3.9c3.1,1.9,3.8,5.7,5.8,8.2
	c2.1,2.6,4.8,4.3,7.2,6.4c1.5-1.5,3-3.3,4.6-4.4c3.4,3.9,0,10.2,5.5,14.1c4.3,2.9,10.6,2.4,6.9,9.3c-3.1,6-9,4.1-13.1,7.4
	c-3.5,2.9-4.3,7-9.3,9.3c0.8,1.8,0.1,2,2.5,2.8c0,0.9,0,1.6,0,2.5c-5.2,1.1-0.5,8.2,1,11.1c-2.9,2.3-4.4,5.7-3.4,9.3
	c5.9,1.6,2.1,11.8,6.3,15.7c-7-0.6-3.6,10.4-3.6,14.1c0,6.3-1.8,9.8,5.5,13.1c4.6,2,11.2,1.9,15.6,5.8c3.1,2.8,2.9,4.3,6.8,5.4
	c3.1,0.9,6.2-0.5,9.2,1.1c0.4,7.7,3,8.9,9.4,11.9c3.9,1.8,10.3,7,14.7,6.7c1,6.2-3.1,7.8-8.2,8.2c-2.8,0.3-5-0.4-7.4,0.9
	c-1.9,1-2.8,3.3-4.9,4.4c-4,2.3-10.1,1.8-10.1,9.5c0,2.9,1.8,3.4,2.5,5.8c0.8,2.3,0.4,5,1,7c-7.2,2-1.8,11.7-1.9,15.8
	c-5.7-6-8.9,6.4-10.7,9.5c-1.3,2.4-2.9,5.2-5,7c-2,1.8-5.7,2.1-7,5c-1.6,3.4,1.3,4.8,0,8.3c-1.3,3.4-4.1,3.3-6.5,5.5
	c-1.6,1.5-2.9,6.2-5,7c-3.3,1.4-5.8-2.4-9.3,0.9c-3.8,3.4-5.2,13.4-7.4,17.8c-2.8,5.5-6.9,10.3-9.9,15.8c-3.4,6.2-7,8.3-13.7,10.4
	c-1,0.4-3.8,0.3-4.6,0.9c-1.5,1.1-0.5,2.8-1.8,3.8c-2.8,2.1-5.4,2-7.4,5.4c-2.8,4.4-1.3,10.3-5.5,14.2c-2.9,2.5-10.6,4.8-7.8,9.7
	c-6,6.8-11.2,2.5-18.3,4c-4.3,0.9-7.8,1.3-12.1,1.8c-4,0.5-8.2,2.9-11.9,3.6c-1.5-5.2-1.8-9.2-2.1-14.6
	c-13.3-1.1-21.4,6.7-28.9,16.3c-3.1,4.1-6.8,8-11.2,11.2c-2.6,1.9-5.2,3.3-7.4,5.7c-2,2.1-1.6,14.2-1.6,14.2
	c-1.4,9.2,3.8,10.4,9.9,13.3c2.8,1.3,3.5,2.9,6.5,3.3c2.9,0.3,5.8-2.4,9.3-1.5c1.6,11.9-12.1,16.7-5.3,29.4c1.8,3.3,5,8.5,8.2,10.7
	c5.4,3.6,8.4-1.9,13.8-1.9c0.1,4.6-3,8.9-1.8,13.8c1,3.9,4.9,7.3,6.5,11.1c1.9,4.3,2.6,8.2,4.4,12.3c2.5,6.2-0.4,6-1.5,11.7
	c2.8,0.6,5.5,5.3,7.2,7.5c-2.4-1.3-6.4-1.4-9-1.5c-0.5,2.6-5.8,6.2-8.3,4.3c-2.6-1.9-0.6-7.9-2.3-10.8c-4.3-1.5-4.5,1.6-7.5,3.3
	c-2.6,1.5-6,2.3-9,3c-1.8,0.5-3.4-0.8-5,0.6c-1.4,1.1-0.8,4.9-1.8,5.7c-2.5,2-6.4-0.6-9.2-1.6c-3-1.1-5.4-2-8.2-3.9
	c-3.8-2.8-1.6-3.4-6.9-1.9c-4.9,1.4-4.9,1.3-9.3,0.5c-4.3-0.8-4.1,0.8-7.9,1.5c-0.6-2.8-3-3.1-5.7-2.8c0-0.8-0.4-1.8-0.3-2.5
	c-6.9-2.1-6.3,10.6-6.5,14.6c-2.8,0.3-6.4,0.6-9.2,0.1c-1.8-0.3-4.8-2.4-6.4-2c-3.3,0.9-3.1,4-3.8,6.5c-0.4,1.5,0.4,3.3,0,4.6
	c-0.3,0.9-2.1,1.8-2.1,2.5c-1.1,12.1,15.8-5.4,21.5-5.2c5,6.8-10.3,4.6-10.2,10.8c-6.2,1.4,5.7,16.7,8.3,19.9
	c5.9,7,13.6,12.8,22.4,15.8c3.3,1.1,11.3,4.4,15.1,2.6c3.4-1.6,1.4-4,3.9-5.4c2-1.1,5.9,0.8,7.9,1c7.5,0.9,3.9-3.5,9.4-5.8
	c2.8-1.1,4.3,1.9,6.8,0.4c1.8-1.1,3-4.9,3.6-6.7c2.4,0.9,4.5,6.5,2.9,8.5c-2.1,2.6-5,2-7.4,4.6c-1.9,2-2.3,5.4-5,7
	c-3.6,2.1-8.7,0.9-12.7,1.3c-0.8,4.9-4.4,2.3-7.4,3.8c-2.8,1.4-1.6,5-6.5,3.4c-0.6-2.1-1.5-2.5-3.8-2.5c-0.8,3.6-6.7,3-9.3,4.4
	c-3.1-13.9-16.6-6.2-12.1,5.4c3.3,8.3,12.6,16.3,19.1,22.7c6.9,6.9,10.4,14.1,15.3,21.9c5,8.2,17.3,12.3,19.5,21.4
	c4.9,0.5,7.5,0.4,11.7,2.3c2.6,1.3,2,2.9,5.7,2.4c1.8-0.3,2.6-2.8,4.1-3.3c4.4-1.5,9.9,0.9,14.5-0.4c3.4-1,7.8-3,11.2-4.6
	c3.8-1.8,7.2-4,11.2-5.7c4-1.6,7.9-0.9,9.5-5.3c0.8-2.3-0.6-4.6,0.6-6.8c1.1-1.9,3.9-2.4,5.2-4.1c3.5-5-0.8-6.5-1-11.2
	c9-2,0-9,0-12.9c0-1,3.3-4.9,3.6-6.7c0.6-3.4,0-7.5-0.1-10.9c0.8,2.3,1.8,5.4,3.9,6.9c2.5,1.8,8.2-0.8,7.2,4.6
	c-1.3-0.3-3.1,0.5-4.4,0.3c-0.3,4-2.3,9.5,4.4,9.3c1.5,6.2-4.6,4.6-5.3,7.5c-0.9,4.1,4.6,4.1,7.3,4.4c14.1,1.6-2.1,3.1-1.1,10.1
	c-10.9-1.6-2.1,12.6-0.6,16.7c2.1,5.5,7.5,14.5,6,19.5c-0.9,2.9-4.3,5.4-5.7,8.4c-1.6,3.6-1.5,7.5-2.5,11.4
	c-1.3,5-6.4,19.1,4.5,17.8c-9.7,3.3,0.5,6.8-0.1,11.7c-5.2-0.8-4.1,11.4-4.3,15c2.3-3,6.2-11.4,11.7-6.2c-1.4,3.1-8.4,3-3.6,7.2
	c-1.8,0.8-3.4,1.4-5.3,2c-0.4,3.1,0.6,8.2,2.5,10.8c-7.5-0.6-1.1,6.9,0.4,9.3c2.5,3.9,1.6,8.5,4.4,12.3l3.8,8.4
	c1.6,6-3.6,16.3,4.5,16.8c-0.6,0.3-1.3,1.4-2.6,1.9c-0.1,2.5,2.1,4.6,2.5,7c0.3,1.9-1,6-0.8,8.5c0.6,6.3,1.5,12.1,1.9,18.6
	c0.4,6,3.6,8.9,4.6,14.8c1.3,7,5.4,7.4,5.7,14.7c6.5,1.1,2.3,10.9,9.9,9.5c-2.3,4.4-1.4,5.8,0.9,10.3c1.4,2.9,2.3,7,4.1,9.8
	c1,1.4,2.8,1.3,3.8,2.8c1.3,1.8,0.5,3.4,2.3,5.2c1.4,1.5,3.6,0.5,4.9,2.5c0.9,1.3,0.3,4.6,1.1,6.3c0.4,0.8,2.6,1.9,3.3,3.3
	c0.6,1.4,0.9,4.6,1.4,6c0.3,0.8,2.4,0.8,2.5,1.4c0.1,1.1-1.1,1.8-1,2.4c0.1,1.5-1.6,2.6-1,5.2c0.8,2.8,4.9,5.4,5.7,8.3
	c0.6,2.6-0.4,3.6,0.4,6.2c0.1,0.5,2.9,2.1,3.4,3.6c-5.7,3.9,0.1,21.6,2,26.3c3.3,8.3,6.4,15.3,8.5,23.9c0.9,3.6,2.4,9.3,5.3,12.3
	c3.3,3.3,8.5,4.4,11.9,7.7c5.5,5.3,7.2,17.3,13.3,20.7c1.5-1.8,1.8-0.9,3.5-1.4c0.3,1.1,0.4,2.4,0,3.4c-0.5,0.1-1,0.3-1.5,0.4
	c-1.4,4,3,8.4,4.5,11.9c2.3,5.2,0.9,9.4,1.9,14.8c0.9,5,3.9,6.8,7.2,10.4s4,6.9,6.3,11.1c-7.3-7.7-5.2-0.5-7.8,4.3
	c7.5,4.3,5.7,9.7,7.3,17c0.8,3,2.8,5.8,3.5,8.5c1.1,4.1-0.8,5-0.8,9l4.6,4.6c-0.6-0.4-1.1-0.4-1.5-1c4,5.9,6.9,11.4,12.8,15.7
	c2.6,1.9,5.2,4,7.9,6c3.9,2.9,3.6,3,5.8,7.2c1.8,3.3,3.5,5.3,7.4,6.5c1.6,0.5,4.3,0.3,5.8,0.6c2.3,0.5,3,1.8,5.4,2.1
	c8.2,1,12.8-8.8,20.4-7.5c-0.3-3.6,2.3-3.5,4.8-4.5c4.3-1.6,3.6,1,5.8-3.5c2.3-4.9-0.3-11.6,0.6-17c0.6-3.3,5.5-10.9,9.5-10.9
	c2.6,0,3,3.6,5.4,3.6c1.6,0,4.9-3.3,6.5-3.8c4.1-1.4,12.4,0.9,15.8-1.9c5.2-4.3-3-7.7-4.6-11.2c-3.6-7.9,10.3-17.8,14.7-23.9
	c-5.8-4,3.6-10.4,7.5-10.4c3,0,6.2,3,9.3,2.9c3-0.1,6.4-2.4,10.1-2.1c0.8-8.4-1.8-15.7-2.4-24c-0.8-9.3,0.8-16.1-2.9-24.9
	c0.5-0.1,1-0.3,1.6-0.4c0.9-3.4-1-7.7-0.8-10.9c0.4-4.8,0.1-9,2.9-12.8s8.7-4.4,10.1-9.5c1.3-4.4-3.5-5.4-1.6-9
	c0.8-1.6,4.3-1.9,5.4-3c1.1-1.1,2-3,2.8-4.6c1.8-3.8,2.1-8,2.8-12.2c1.6-10.2-0.6-13.7-10.1-17.7c-0.3-1-0.1-1.5,0-2.5
	c3,0.5,6,2.9,8.9,3.5c0.4-2.9-1.5-3.8-2.4-6.4c-1-2.9-0.6-5.3-1.1-8.4c-0.3-1.4-1.4-5.2-1.9-6.5c-0.6-1.8-3.8-4.3-4-5.3
	c-1.1-3.8,4.8-7,4.6-12.2c0-2.5-15.6-30.9,1-33.8c2.9-5.3,2-11.2,8.4-15c2.4-1.4,7.5-2.8,10.3-1.6c3.3,1.4,3,6,7.2,5.4
	c4.6-0.8,11.1-12.1,13.4-15.6c2.3-3.4,2.1-4.8,3.5-8.4c1.3-3.4,1.5-5.5,6.3-4.5c2.5,0.6,4.3,4.5,7.7,4.5c2.4,0,6.9-2.1,9.2-2.9
	c5-1.8,11.8-3.3,16.1-7.2c6-5.5,4.5-10.8,2.5-17.8c-1.1-4-2.3-3.3,0.6-6.8c1.6-2,6.2-3.6,8.4-4.3c2.3,1.3,8.8-6.9,13.2-7.7
	c5.7-1,13.1-2.8,16.1-9c3.1-6.4-2-12.8,4.6-17.6c5.2-3.8,13.7-5.2,18.3-8.5c8.8-6.4,14.2-20.7,21.2-29.2c1.9-2.3,3-5.8,4.6-7.4
	c1.5-1.6,5.8-2.6,7.8-4.1c4.8-3.8,7.8-10.3,13.6-12.4c0.3-1,0.1-1.5,0-2.5c-3.5,0-5.8-1.5-8-4c1.6-2.4,4.5-6.3,8-5.3
	c0.1,5.3,0,8.4,6.4,7c3.3-0.8,8.3-3.1,11.4-4.4c7.3-3,14.7-6.7,21.1-11.4c4.4-3.3,14.5-9.3,15.2-15.6c0.3-2.4-2.3-2.9-1.9-5.7
	c0.4-3.1,1.5-2.5,2.8-4.6c2.6-4.4,2.4-4.8,1-9.9c5.7-3.9-2.9-7.2-3.6-10.7c-1-5,4.8-7.7,8.2-10.3c4.3-3.3,6.2-5.2,11.2-6.3
	c4.4-0.9,11.8-1.6,15.7-3.8c-1.3-1.1-1-2.1-3.5-2c1.4-2.1,3.8-2.9,6.3-3.6c-0.4-1.6-1.3-7.4,0.9-8.4c2.8-1.4,4.5,2.5,6.2,4.6
	c5.3,6.8,8,3.9,15.3,1c-0.6-2.9,0.4-5.5,3.8-5.3c1.1,4.4,5.8,4.6,8.3,1.6c1.4-1.6,2.8-7.8,3-10.1c0.5-4.6-1.5-5.7-2.9-9.3
	c-1.5-3.9-0.9-9-0.1-12.9c-7.7-1.3-2.8-7.7-2.8-12.1c-5-1.1-1-5,1.9-5.9c1.3-3.9-2.5-5.2-5.4-6.3l-6.5-1.9c-0.6,0.1-1.1,0.1-1.6-0.1
	c-3.5-4.9,2.9-5.3,3.4-9.3c0.4-4-4.4-5.4-6.5-7.9c-4.1-4.9-1.1-5.2,3-9.7c3.6-4.1,3.4-5.3,1.9-10.1c-0.9-2.9-1.3-9.5-3.6-11.2
	c-2.9-1.9-10.6,0.4-13.9-0.9c-4.4-1.5-7.2-3.8-7.4-8.4c-0.5-6.7,3.5-6,8.3-5.7c1.6-5.7-0.5-9.7,5.7-11.9c4-1.4,10.3-3.3,14.7-3.8
	c0.1-1.6,0.9-5.9,0.1-7.3c-1.3-2.4-3.8-1.5-4.8-2.6c-1.4-1.8-0.8-4.3-2-5.7c-2.8-3.1-3.1-0.6-6.3-0.9c-5.8-0.5-5.4-4-9-7.8
	c-2.5-2.6-6.8-5.9-9.7-8.2c5-3.3-0.8-9.7,6.5-10.4c1-3.4,2.5-6.2,2.1-9.9c7.3,0.3,7.9,16.1,17.3,15.6c0.4-3.4-2.9-4.8-2.5-8.2
	c3,1,7.5,3.1,6.5-2.8c7.8,5.5,10.9,18.6,21.9,12.7c2.3-1.3,2.4-4.3,5.2-2.9c2.3,1.1,1.5,5.8,1.6,7.8c0.1,2.6-0.4,3.8,0.6,6.7
	c0.9,2.9,3,4.1,2,7.9c-5.8,1-4.1,6.3-0.5,9.3c3.4,2.9,9.7,2.6,13.7,3.9c3.6,1.3,9.3,4.4,13.7,2.6c6.4-2.6,3.9-5.5,11.6-3.8
	c2.3,0.5,4,1.8,7,1c2.4-0.6,3.3-3.5,6.8-2.6c2.4,0.6,4.1,4,7.4,4.8c2.6,0.6,6,0.1,8.4-1c5.2-2.4,5.2-6,11.4-4.9
	c4,0.8,7.4,5.2,11.4,5.8c-9.3,3-1.3,6.3-2.6,11.9c-0.9-0.1-2.5,0.5-3.4,0.3c-0.3,3,0,6-0.4,9c-6.8-7.9-7.3,4.3-7.3,9
	c-2.4-7.3-8,1.9-10.9,3.4c-4.3,2.3-8.5,1-11.2,6.4c-1.9,4-3.5,10.4-3.9,14.6c-0.6,6.3,2,9.3,4,14.7c1,2.8,1.1,14.2,5.4,13.1
	c4.3-1.1,3.9-11.8,7.2-1.5c1,3.1-0.6,5,3,6.3c3,1,5-0.6,6.5-2.8c2.3-3.4,1.5-11.4-0.8-14.6c4-3.5,6-10.8,5.7-16
	c2.4,1.6,5.7,1.1,7.3-1.6c-0.4,5.4,1.3,5.2,3.4,9.2c1.9,3.5,1.5,6.4,2.8,10.2c1.4,4.3,3,4.9,3,10.1c0,4.6-0.1,7.7,1.8,11.3
	c2.3,4.1,3.8,5.3,4.6,10.1c0.8,4,0.6,7.8,0.9,12.1c0.4,4.9,0.9,18.5,8.3,17.5c-0.3-2.4,0.5-3,1.8-4.4c5.7,14.2,12.4-7.3,13.2-12.2
	c1.1-7-0.6-21-2.9-28.6c-0.5-0.1-1-0.3-1.5-0.4c-5.2-8.4,4.8-7.9,9.9-8.3c0.6-8.2-2.9-13.9-1.6-21.2c0.8-4.5-1.3-19.4,3.5-21.2
	c0.1,0.5,0.3,1.1,0.4,1.6c1.5-0.3,3.1-2,4.3-3.5c1.3,9,5.9,4.8,11.1,1.9c1.8,1.5,3.1,3.4,4.1,5.3c7.2-3,4.5-13.4,6-18.7
	c1.8-6,4.6-10.8,6.8-16.5c2-5.7,6.3-11.4,3.6-17.7s-7.8-9.8-1.1-16.8c1.9-2,5.4-2.4,7.4-4.8c2.8-3.4,1.6-6.7,2.3-10.8
	c0.4-2.8,2.9-6.2,3.3-8.8c0.6-4-1.1-6.4-1.6-9.9c-0.5-3.3-1.8-7.3-1.8-10.2c-0.1-5.3,1.1-3.6,5.3-5.8c5.9-3.1,6.9-7.4,11.1-12.1
	c2.3-2.5,4.9-3.8,7-6c2-2.3,5.3-3.9,7.2-6c2.6-3.1,1.3-5.2,4.6-7.3c1.6-1,6.5-2.6,8.5-3.5c8-3.3,8.9,2.9,15.6,5.4
	c2,0.8,7,2.1,8.7-0.6c2.1-3.8-2.9-4.3-4.6-6c-4.3-4.5-6.8-11.1-2.1-15.6c5-4.8,10.9-4.5,10.9-12.8c0-1.3,0-9.3-0.8-10.4
	c-1.4-2.1-6.4-2.6-8.7-3.4c-1.1-0.4-2.1-1.9-3.5-2.1c-2-0.4-2.1,2-3.6,2c-4-0.3-5.9-2-10.3-1.9c-3.8,0.1-8.7,2.6-11.9-0.3
	c2.9-6.3,11.2-8.7,9.2-16.5c-1.6-6.2-11.6-14.6-14.1-4.8c-6.5,0,5.5-12.1,4.6-15.5c-3.6-0.1-8.3,0.6-7.4-4.6
	c-11.7-0.9-16.5,7.9-24.8,15c-5.7,4.8-7.2,3.9-14.2,2.5c-2.9-0.5-6-0.3-8.5-1.6c-2.3-1.1-3.8-3.3-6-4.1c-0.1-0.5-0.3-1-0.4-1.5
	c-1.6,0.1-10.7,8-11.9,10.1s-1.4,5.7-3,8.2c-1.4,2.1-2.8,5.9-4.6,7.4c-2.9,2.4-5.4,1.8-8.8,3.3c-1.5,0.6-2.5,2.9-3.9,3.4
	c-1.6,0.5-2.8-1-4.6-0.8c-7.5,0.9-9.2,7.7-9.4,14.7c-3.3,1-9.2,1.6-11.7,4.1c-1.6,1.5-1.4,3.8-2.9,5.4c-1.9,1.9-4.1,0.8-4.5,3.5
	c6.7-0.1,1.4,5.4-1.3,7.4c-4.6,3.6-9.4,1.8-14.5,4.1c-4.6,2.1-3.8,5.4-9.3,4.1c-3.6-0.8-7.8-4-11.2-5.3c-0.5,2.9,0.4,4.8,0.8,7.3
	c0.3,1.8,0.3,5.8,0.9,7.4c2.1,5.2,7.7-0.8,13.1,1.9c5.5,2.6,4,6.5,3.6,11.2c-0.5,5.8,3.4,10.4,2.9,15.5c-5-4-7.2-1.4-12.4,0.1
	c-3.5,1-10.8-3.1-11.9,2.9c-4.4,0.5-6.9,0.5-10.7,2.3c-4.3,1.9-5.7,3-10.7,1.9c-3.8-0.9-6-3.3-9.8-4.1c-3.9-0.9-5.9,1.6-10.3,1.3
	c-0.4,2.1-0.8,4.1-1.3,6.3c-3.3-0.9-7.7-7.3-10.2,0.9c-6,1.6-15.7-9.3-21.9-2.8c-4.4-7.9-12.7-10.2-13.1-20.1c0-0.6,2-1.3,1.8-3
	c-0.3-1.1-1.5-2.1-1.6-3c-0.1-0.8-1.8-1.1-1.9-1.8c-0.3-1.5,0.9-1.9,1-3.4c0.4-5.5,4.3-12.8-0.4-17.5c-3.9-4-7.9-2.4-11.8-1.1
	c-3.6,1.3-10.4,1-13.8,2.9c-7.9,4.6,1,5.9,1.8,9.9c0.4,2.1-4.8,9.2-5.5,11.4c1.8,3.9,1.5,6.8,0.9,10.9c-1,5.9-0.1,5.5,2.5,10.4
	c4.3,7.9,1.9,17.1-1.3,24.9c0.5-0.1,1-0.1,1.5-0.1L997.6,691.5z"/>
</svg>
